<?xml version="1.0" encoding="UTF-8"?> <svg xmlns="http://www.w3.org/2000/svg" width="192" height="131" viewBox="0 0 192 131" fill="none"><g clip-path="url(#clip0_81_13)"><path fill-rule="evenodd" clip-rule="evenodd" d="M71.8651 25.4713V87.3103L58.4819 79.7748V16.2584V9.23584V0L95.9999 25.8281L133.519 0V16.2584L95.9999 42.0866L71.865 25.4713H71.8651ZM133.519 43.2996L96.0001 69.1277V52.8693L133.519 27.0412V43.2996ZM4.17208 130.323H0.000488281V103.991H6.84017L11.3122 114.26L9.05747 119.451L4.17208 108.279V130.323ZM27.1709 130.323H22.9998V108.354L13.6045 129.871L11.312 124.643L20.369 103.991H27.1707V130.322L27.1709 130.323ZM51.2231 130.323H30.9291V126.147H51.2231V130.323ZM51.2231 119.226H30.9291V115.088H51.2231V119.226ZM51.2231 108.166H30.9291V103.991H51.2231V108.166ZM66.4805 130.323H54.9808V126.147H66.0671C67.896 126.147 69.4305 125.708 70.6707 124.831C71.911 123.953 72.8569 122.824 73.508 121.445C74.1595 120.066 74.4849 118.574 74.4849 116.969C74.4849 115.514 74.1906 114.122 73.6018 112.793C73.013 111.464 72.0922 110.36 70.8397 109.483C69.5873 108.605 67.996 108.166 66.0669 108.166H54.9806V103.991H66.4803C69.3114 103.991 71.6856 104.63 73.6019 105.909C75.5188 107.188 76.9656 108.824 77.9427 110.818C78.9197 112.812 79.4207 114.925 79.4457 117.156C79.4457 119.389 78.9759 121.501 78.0367 123.495C77.097 125.489 75.669 127.125 73.7522 128.404C71.8358 129.683 69.4116 130.323 66.4803 130.323H66.4805ZM87.3379 130.323H83.1665V103.991H87.3379V130.323ZM102.22 130.925C101.619 130.925 101.004 130.887 100.378 130.812C97.347 130.511 94.2528 129.131 91.0961 126.674L93.7264 123.401C96.6077 125.583 99.4388 126.674 102.22 126.674C102.997 126.674 103.71 126.574 104.362 126.373C105.239 126.097 105.915 125.671 106.391 125.094C106.792 124.592 106.993 124.103 106.993 123.627C106.993 122.373 106.435 121.451 105.32 120.862C104.205 120.273 102.871 119.777 101.318 119.376C99.1633 118.875 97.2152 118.122 95.4741 117.119C93.733 116.116 92.662 114.423 92.2609 112.041V111.401C92.2609 108.091 93.8266 105.646 96.9586 104.066C98.3614 103.414 99.9021 103.088 101.581 103.088C104.437 103.088 107.28 104.191 110.111 106.398L107.406 109.633C105.426 108.079 103.472 107.301 101.543 107.301C100.541 107.301 99.6138 107.501 98.7624 107.903C98.1608 108.154 97.6597 108.53 97.2591 109.031C96.7327 109.633 96.4699 110.398 96.4699 111.326V111.589C96.7203 112.618 97.4219 113.401 98.5744 113.941C99.7268 114.48 101.03 114.937 102.483 115.314C104.061 115.74 105.552 116.241 106.955 116.818C109.811 118.047 111.239 120.179 111.239 123.213C111.239 124.943 110.726 126.461 109.698 127.764C108.671 128.994 107.318 129.884 105.639 130.436C104.562 130.762 103.422 130.925 102.22 130.925ZM126.121 130.925C125.52 130.925 124.906 130.887 124.28 130.812C121.248 130.511 118.154 129.131 114.997 126.674L117.628 123.401C120.509 125.583 123.34 126.674 126.121 126.674C126.898 126.674 127.612 126.574 128.263 126.373C129.14 126.097 129.816 125.671 130.293 125.094C130.693 124.592 130.894 124.103 130.894 123.627C130.894 122.373 130.337 121.451 129.222 120.862C128.107 120.273 126.773 119.777 125.219 119.376C123.065 118.875 121.117 118.122 119.376 117.119C117.634 116.116 116.563 114.423 116.162 112.041V111.401C116.162 108.091 117.728 105.646 120.86 104.066C122.263 103.414 123.803 103.088 125.482 103.088C128.338 103.088 131.182 104.191 134.013 106.398L131.307 109.633C129.328 108.079 127.373 107.301 125.444 107.301C124.442 107.301 123.515 107.501 122.663 107.903C122.062 108.154 121.561 108.53 121.16 109.031C120.634 109.633 120.371 110.398 120.371 111.326V111.589C120.622 112.618 121.323 113.401 122.476 113.941C123.628 114.48 124.931 114.937 126.384 115.314C127.962 115.74 129.453 116.241 130.856 116.818C133.712 118.047 135.14 120.179 135.14 123.213C135.14 124.943 134.627 126.461 133.6 127.764C132.572 128.994 131.219 129.884 129.541 130.436C128.464 130.762 127.323 130.925 126.121 130.925ZM152.728 131C150.198 131 147.88 130.379 145.776 129.138C143.671 127.897 141.999 126.222 140.759 124.116C139.519 122.009 138.898 119.69 138.898 117.157C138.898 114.599 139.519 112.273 140.759 110.179C141.999 108.085 143.671 106.417 145.776 105.176C147.88 103.934 150.198 103.314 152.728 103.314C155.284 103.314 157.607 103.934 159.699 105.176C161.791 106.417 163.457 108.085 164.698 110.179C165.938 112.273 166.558 114.599 166.558 117.157C166.558 119.69 165.938 122.009 164.698 124.116C163.457 126.222 161.791 127.897 159.699 129.138C157.607 130.379 155.283 131 152.728 131ZM152.728 126.674C155.359 126.674 157.601 125.746 159.455 123.89C161.309 122.034 162.236 119.79 162.236 117.157C162.236 114.524 161.309 112.279 159.455 110.423C157.601 108.568 155.358 107.64 152.728 107.64C150.097 107.64 147.855 108.568 146.001 110.423C144.147 112.279 143.22 114.524 143.22 117.157C143.22 119.79 144.147 122.034 146.001 123.89C147.855 125.746 150.098 126.674 152.728 126.674ZM189.97 130.323H185.31L174.487 108.279V130.323H170.316V103.991H177.005L189.97 130.323ZM192 125.056L187.866 116.555V103.991H192V125.056Z" fill="url(#paint0_linear_81_13)"></path></g><defs><linearGradient id="paint0_linear_81_13" x1="0.0191138" y1="67.0151" x2="191.982" y2="63.9908" gradientUnits="userSpaceOnUse"><stop stop-color="#D2B066"></stop><stop offset="0.470588" stop-color="#FFF3D8"></stop><stop offset="1" stop-color="#D3B166"></stop></linearGradient><clipPath id="clip0_81_13"><rect width="192" height="131" fill="white"></rect></clipPath></defs></svg> 